<svg width="235" height="75" viewBox="0 0 235 75" fill="none" xmlns="http://www.w3.org/2000/svg">
<g clip-path="url(#clip0_28_160)">
<path d="M57.5896 26.0129C57.1448 23.4298 56.5071 21.3344 55.6389 19.6034C54.8887 18.1029 53.9562 16.881 52.8683 15.97C51.3463 14.6999 49.5135 14.0247 47.5682 14.0247C46.6411 14.0247 45.7461 14.1479 44.8994 14.3944L47.7611 8.27439L41.9144 4.12112H37.7021C36.984 4.12112 36.2016 3.57449 35.2048 2.88853C33.4417 1.67203 31.0301 0 26.9572 0C23.5113 0 20.7997 0.959272 18.6507 2.93141C18.6507 2.93141 4.72781 16.5166 4.64743 16.5917C3.83821 17.417 3.13081 18.4298 2.54132 19.6034C1.67315 21.3344 1.03542 23.4352 0.590616 26.0129C-0.341861 31.4202 -0.159653 36.8168 1.12116 41.6292C2.5038 46.8221 5.03328 51.8007 8.63457 56.4363C13.0344 62.1008 19.058 67.2455 26.5285 71.7257L29.0901 73.2637L31.6518 71.7257C39.1223 67.2402 45.1459 62.0955 49.5457 56.4363C53.147 51.8007 55.6764 46.8221 57.0591 41.6292C58.3399 36.8168 58.5275 31.4202 57.5896 26.0129Z" fill="white"/>
<path d="M24.9678 20.2733H17.2025L16.5059 31.9668C16.9346 32.0311 17.3472 32.1544 17.7438 32.3366L24.9732 20.2733H24.9678Z" fill="black"/>
<path d="M18.9335 46.7898C18.9335 46.7898 18.8906 46.7684 18.8691 46.7577V47.7062C18.9924 47.7652 19.121 47.8188 19.255 47.8724C19.8499 48.1135 20.568 48.3011 21.6666 48.3011C22.8724 48.3011 23.6173 48.076 24.2443 47.8027V46.8595C23.5905 47.1703 22.926 47.4436 21.6666 47.4436C20.509 47.4436 19.8552 47.2132 19.255 46.9345C19.1478 46.8863 19.0406 46.8327 18.9335 46.7845V46.7898Z" fill="black"/>
<path d="M19.255 50.4285C19.1478 50.3803 19.0406 50.3267 18.9335 50.2785C18.912 50.2678 18.8906 50.2571 18.8691 50.2463V51.1949C18.9924 51.2538 19.121 51.3074 19.255 51.361C19.8499 51.6022 20.568 51.7897 21.6666 51.7897C22.5133 51.7897 23.1296 51.6772 23.6441 51.5164V50.6108C23.1457 50.7983 22.5562 50.9323 21.6666 50.9323C20.509 50.9323 19.8552 50.7019 19.255 50.4232V50.4285Z" fill="black"/>
<path d="M19.255 53.9013C19.1478 53.8531 19.0406 53.7995 18.9335 53.7513C18.912 53.7406 18.8906 53.7298 18.8691 53.7191V54.6677C18.9924 54.7266 19.121 54.7802 19.255 54.8338C19.8499 55.075 20.568 55.2625 21.6666 55.2625C22.106 55.2625 22.4812 55.2304 22.8188 55.1821V54.314C22.4919 54.3729 22.1167 54.4104 21.6666 54.4104C20.509 54.4104 19.8552 54.18 19.255 53.9013Z" fill="black"/>
<path d="M27.9849 4.16398C28.628 4.30331 29.2497 4.51232 29.8392 4.8017C30.4287 5.09109 30.9807 5.45015 31.5219 5.84672C32.3311 6.43085 33.1457 7.10609 34.105 7.642V6.19506C33.4458 5.836 32.792 5.39656 32.1061 4.97319C31.5059 4.60342 30.8735 4.25508 30.1982 3.98713C29.5284 3.71382 28.8156 3.53697 28.1028 3.44051C27.3901 3.34404 26.672 3.33869 25.9699 3.39763C25.9271 3.39763 25.8896 3.40835 25.8467 3.40835V3.97641C25.8949 3.97641 25.9431 3.97641 25.9914 3.97641C26.6666 3.97641 27.3311 4.03 27.9796 4.16934L27.9849 4.16398Z" fill="black"/>
<path d="M56.7416 26.1575C56.3129 23.6602 55.6966 21.6398 54.8659 19.9839C54.1692 18.5905 53.3064 17.4598 52.3097 16.6238C50.9431 15.4823 49.3032 14.8767 47.5615 14.8767C45.225 14.8767 43.1189 15.7449 41.5915 17.3204L39.0031 14.5284L39.4211 13.628H42.942L42.524 14.5284H43.8745L46.6666 8.55302L41.6291 4.97317H37.6902C36.7041 4.97317 35.8252 4.36224 34.7052 3.58517C32.942 2.36866 30.7502 0.852051 26.9453 0.852051C23.7245 0.852051 21.2057 1.73094 19.2229 3.55302L10.2893 12.2668C10.2893 12.2668 5.26788 17.1704 5.2518 17.1865C4.5069 17.9421 3.85309 18.8799 3.30111 19.9785C2.47046 21.6345 1.85952 23.6549 1.42544 26.1522C0.514402 31.4362 0.691251 36.7095 1.93991 41.3987C3.29575 46.4791 5.77163 51.3558 9.29789 55.9003C13.6334 61.4791 19.5766 66.5541 26.956 70.9807L29.0782 72.2562L31.2003 70.9807C38.5798 66.5488 44.5229 61.4791 48.8584 55.9003C52.39 51.3558 54.8659 46.4791 56.2164 41.3987C57.4651 36.7042 57.6473 31.4362 56.7309 26.1522L56.7416 26.1575ZM20.0696 4.44798C20.7073 3.86384 22.6473 2.07928 26.9506 2.07928C30.375 2.07928 32.3043 3.41904 34.0138 4.59803C35.2571 5.46084 36.329 6.20039 37.6955 6.20039H41.2432L45.1339 8.96031L43.5262 12.4062H40.0321C39.5229 12.3687 39.0246 12.1865 38.628 11.8435C38.1296 11.4255 37.8188 10.777 37.7652 10.0696H37.1489C37.1275 10.4876 37.1757 10.9217 37.3097 11.3344C37.4436 11.7524 37.6741 12.1543 37.9742 12.4919C38.1082 12.642 38.2582 12.776 38.419 12.8992L37.5508 14.7535L39.9356 17.3258H38.1242L34.9892 14.6356H34.2604L36.5648 17.3258H31.9292L29.255 14.6516H27.658C27.9795 13.9335 28.1671 13.1565 28.1993 12.3794C28.2046 12.2347 28.2046 12.0954 28.2046 11.9507L28.1725 11.5219L28.1564 11.3076L28.1189 11.0986L28.0439 10.6806C27.8992 10.1286 27.717 9.59268 27.4383 9.09964C27.1596 8.61197 26.8381 8.14037 26.4361 7.74916L26.2914 7.59911L26.1307 7.45977C26.0235 7.36867 25.9217 7.2722 25.8091 7.18646C25.5787 7.02569 25.359 6.8542 25.1125 6.72558C24.3675 6.28078 23.5208 6.0289 22.6687 5.94316C22.4222 5.91636 22.1757 5.90564 21.9345 5.90564V6.5005C22.926 6.54337 23.9067 6.82204 24.7212 7.36867C24.9356 7.49193 25.1178 7.6527 25.3107 7.80275C25.4018 7.88314 25.4876 7.96888 25.5787 8.05463L25.7127 8.18325L25.8306 8.32258C26.1628 8.67628 26.4147 9.09964 26.6344 9.52301C26.8488 9.95709 26.9828 10.418 27.0792 10.8896L27.1221 11.2433L27.1435 11.4201V11.597L27.1543 11.956C27.1543 12.0739 27.1435 12.1918 27.1328 12.3097C27.0471 13.2583 26.688 14.164 26.1253 14.9142L25.4018 15.8789H28.7459L30.1982 17.3312H16.4361V12.2722H12.0417L20.0642 4.44798H20.0696ZM13.8799 22.2669C13.4029 24.1372 11.8113 25.4823 9.91954 25.6645C9.76949 25.6806 9.61943 25.6913 9.46938 25.6913C7.06316 25.6913 5.09103 23.8156 4.93562 21.4469C4.93026 21.3451 4.91954 21.2433 4.91954 21.1415C4.91954 19.8928 5.43937 18.6977 6.35577 17.8296C6.45223 17.7384 10.7931 13.4994 10.7931 13.4994H15.2143V17.8563L13.8745 22.2669H13.8799ZM55.0481 41.0879C54.2389 44.1265 53.0117 47.09 51.3879 49.9518C51.3022 50.0965 51.2164 50.2465 51.1307 50.3912C51.0664 50.4984 51.002 50.6109 50.9377 50.7181C50.852 50.8574 50.7662 51.0021 50.6805 51.1415C50.6055 51.2647 50.5304 51.3826 50.4554 51.5005C50.375 51.6291 50.2946 51.7578 50.2089 51.8864C50.0588 52.1168 49.9088 52.3473 49.7534 52.5777C49.6944 52.6688 49.6301 52.7546 49.5712 52.8457C49.4586 53.0171 49.3407 53.1833 49.2228 53.3548C49.1532 53.4512 49.0889 53.5477 49.0192 53.6442C48.8959 53.8156 48.778 53.9818 48.6494 54.1533C48.5905 54.239 48.5262 54.3194 48.4672 54.4051C48.285 54.6517 48.0974 54.8982 47.9045 55.1447C47.9045 55.1447 47.9045 55.1447 47.9045 55.1501C47.7277 55.3751 47.5455 55.6056 47.3632 55.8307C45.359 58.3119 43.0278 60.6967 40.375 62.9582C38.419 64.6302 36.2861 66.2326 33.9924 67.7706C32.8938 68.5048 31.763 69.2283 30.584 69.9357L29.0942 70.8307L27.6044 69.9357C20.3536 65.5841 14.523 60.6109 10.284 55.1501C10.1607 54.9893 10.0428 54.8285 9.91954 54.6677C9.83915 54.5606 9.75341 54.4534 9.67302 54.3462C9.52297 54.1479 9.38363 53.9496 9.23894 53.746C9.19071 53.6763 9.13712 53.6066 9.08889 53.537C8.92811 53.3065 8.76734 53.0761 8.60657 52.8457C8.57978 52.8081 8.55298 52.7653 8.52619 52.7278C8.3547 52.4705 8.18321 52.2133 8.01708 51.956C8.00636 51.94 8.001 51.9293 7.99028 51.9132C5.76091 48.4512 4.13712 44.8231 3.14034 41.0879C1.93455 36.5648 1.76306 31.4737 2.64731 26.3612C2.93669 24.6945 3.30647 23.2636 3.76735 22.0203C3.90668 22.9367 4.2711 23.7835 4.79093 24.5069C4.61944 25.1715 4.46938 25.8735 4.33541 26.6506C4.1264 27.8671 3.97635 29.0836 3.89061 30.2894L11.9613 34.0568C12.0953 33.8424 12.2454 33.6334 12.4169 33.4405C12.5401 33.3012 12.6741 33.1779 12.8081 33.0546L7.93133 26.6934C8.42436 26.8328 8.94419 26.9078 9.4801 26.9078C9.86595 26.9078 10.2411 26.8649 10.6109 26.7899L13.9281 32.3258C14.3193 32.1436 14.7373 32.0203 15.1661 31.956L14.673 23.6656C14.8392 23.3226 14.9785 22.9582 15.0803 22.5777L16.2593 18.6924L16.3022 18.553H42.1489L42.3311 18.3494C43.2528 17.3258 44.9142 16.0986 47.583 16.0986C49.0353 16.0986 50.4072 16.6023 51.5487 17.5562C52.4168 18.2851 53.1725 19.2819 53.7941 20.5252C54.5712 22.0739 55.1446 23.9818 55.5572 26.3558C56.4415 31.4684 56.27 36.5595 55.0642 41.0825L55.0481 41.0879Z" fill="black"/>
<path d="M41.5381 9.33554C41.9025 9.33554 42.1972 9.04079 42.1972 8.67638C42.1972 8.31196 41.9025 8.01721 41.5381 8.01721C41.1737 8.01721 40.8789 8.31196 40.8789 8.67638C40.8789 9.04079 41.1737 9.33554 41.5381 9.33554Z" fill="black"/>
<path d="M37.7598 9.02462C37.7598 9.02462 37.7598 9.02462 37.7598 9.0139C37.7866 8.91208 37.9956 8.13501 38.7834 8.00104V7.37402H37.1382V9.02462H37.7598Z" fill="black"/>
<path d="M53.8481 26.6559C53.1515 22.6259 51.4955 17.8188 47.5673 17.8188C44.7752 17.8188 43.4783 19.4909 43.0282 20.2733H28.6712L18.8642 33.0653C18.9874 33.1725 19.1053 33.2904 19.2179 33.4136C19.4161 33.628 19.5876 33.8638 19.743 34.1157L26.7795 30.9324L26.2007 33.478L20.2736 35.359C20.3915 35.7984 20.4504 36.2539 20.4397 36.7148C20.2307 36.6719 20.0378 36.6184 19.8609 36.554C19.6627 36.4844 19.4751 36.404 19.2875 36.3182C19.1964 36.2754 19.1053 36.2325 19.0142 36.1896C18.8374 36.1039 18.6605 36.0181 18.4676 35.9378C18.0603 35.7663 17.5941 35.6055 16.9885 35.5144C16.9027 35.5037 16.817 35.4876 16.7313 35.4822C16.5973 35.4662 16.4526 35.4554 16.3025 35.4447C16.1739 35.4394 16.0346 35.434 15.8952 35.434C15.8738 35.434 15.8524 35.434 15.8309 35.434C15.8095 35.434 15.7934 35.434 15.772 35.434C15.6326 35.434 15.4933 35.434 15.3647 35.4447C15.2254 35.4501 15.0914 35.4608 14.9628 35.4769C14.8663 35.4876 14.7698 35.4983 14.6787 35.5144C14.0946 35.6055 13.6391 35.7555 13.2479 35.9217C13.0335 36.0128 12.8406 36.1039 12.653 36.195C12.5565 36.2432 12.4601 36.2861 12.369 36.329C12.1868 36.4147 12.0099 36.4897 11.8116 36.5594C11.6348 36.6237 11.4472 36.6773 11.2382 36.7202C11.2329 36.2432 11.2918 35.7663 11.4204 35.3107L3.81055 32.7866C3.81055 33.6762 3.84806 34.5605 3.92309 35.434C3.92845 35.5251 3.93916 35.6109 3.94988 35.6966C3.96596 35.8788 3.97668 36.061 3.99811 36.2432H4.00347C4.01955 36.3772 4.03027 36.5165 4.04635 36.6505C4.08386 36.6505 4.12137 36.6505 4.16425 36.6505C4.26607 36.6505 4.36253 36.6505 4.45899 36.6559C4.48043 36.6559 4.50187 36.6559 4.5233 36.6559C4.60369 36.6559 4.68407 36.6666 4.7591 36.6719C4.76982 36.6719 4.78054 36.6719 4.79126 36.6719C4.97346 36.688 5.1396 36.7095 5.30037 36.7416C5.92202 36.8541 6.35074 37.0632 6.8277 37.2882C7.57261 37.6473 8.41398 38.0492 10.011 38.0492C11.608 38.0492 12.4547 37.6473 13.1943 37.2882C13.4247 37.1757 13.6444 37.0739 13.8802 36.9828C14.3143 36.8113 14.802 36.688 15.5094 36.6559C15.5791 36.6559 15.6541 36.6559 15.7291 36.6505C15.772 36.6505 15.8095 36.6505 15.8524 36.6505C15.8952 36.6505 15.9328 36.6505 15.9756 36.6505C16.056 36.6505 16.131 36.6505 16.2061 36.6559C16.8706 36.688 17.3475 36.8006 17.7602 36.956C18.0174 37.0524 18.2586 37.165 18.5051 37.2882C19.25 37.6473 20.0914 38.0492 21.6937 38.0492C23.2961 38.0492 24.1375 37.6473 24.8824 37.2882C25.0592 37.2025 25.2307 37.1221 25.4076 37.0471L25.1396 38.2261L26.2704 37.9956L26.0024 39.2443C25.3593 39.389 24.8931 39.6141 24.4322 39.8338C23.7248 40.1714 23.0603 40.4929 21.6991 40.4929C20.3379 40.4929 19.668 40.1714 18.966 39.8338C18.205 39.4694 17.4172 39.0889 15.8577 39.0889C14.2982 39.0889 13.5105 39.464 12.7495 39.8338C12.0421 40.1714 11.3775 40.4929 10.0163 40.4929C8.65514 40.4929 7.98526 40.1714 7.28322 39.8338C6.83306 39.6194 6.37218 39.3997 5.74517 39.255C5.71301 39.2496 5.68086 39.2443 5.64871 39.2336C5.60047 39.2228 5.55224 39.2121 5.49865 39.2014C5.4397 39.1907 5.38075 39.18 5.3218 39.1746C5.28429 39.1693 5.24678 39.1639 5.20926 39.1585C4.98418 39.1264 4.73766 39.1049 4.46435 39.0996C4.5233 39.389 4.58761 39.6784 4.65728 39.9678C4.83949 39.9785 5.00026 39.9999 5.15567 40.0213C5.21462 40.0321 5.26821 40.0374 5.3218 40.0481C5.35932 40.0535 5.39683 40.0589 5.43434 40.0696C5.52009 40.0856 5.60583 40.1071 5.68622 40.1285C5.69694 40.1285 5.7023 40.1285 5.70766 40.1339C5.7934 40.1553 5.87915 40.1821 5.95953 40.2089C6.30787 40.3214 6.60798 40.4661 6.91345 40.6108C7.67443 40.9752 8.46222 41.3557 10.0217 41.3557C11.5812 41.3557 12.369 40.9752 13.13 40.6108C13.8374 40.2732 14.5019 39.9517 15.8631 39.9517C17.2243 39.9517 17.8942 40.2732 18.6016 40.6108C19.3626 40.9752 20.1503 41.3557 21.7098 41.3557C23.2693 41.3557 24.0571 40.9806 24.8181 40.6108C25.1343 40.4608 25.4451 40.3107 25.8149 40.1928L25.2575 42.7652C24.9253 42.8884 24.6412 43.0224 24.3679 43.1564C23.6498 43.4994 23.0335 43.7995 21.7098 43.7995C20.3861 43.7995 19.7698 43.5047 19.0517 43.1564C18.3068 42.7973 17.4654 42.3954 15.8631 42.3954C14.2607 42.3954 13.4193 42.7973 12.6798 43.1564C11.9617 43.4994 11.3454 43.7995 10.0217 43.7995C8.69801 43.7995 8.08172 43.5047 7.36361 43.1564C7.18676 43.0706 6.99919 42.9849 6.8009 42.8991C6.79019 42.8991 6.77947 42.8884 6.76339 42.8831C6.7366 42.8723 6.71516 42.8616 6.68836 42.8509C6.31859 42.7009 5.89522 42.5669 5.36468 42.4811C5.51473 42.9313 5.6755 43.3815 5.84163 43.8316C6.56511 45.7609 7.47079 47.658 8.54796 49.5068C8.59619 49.5926 8.64442 49.673 8.69265 49.7587C8.77304 49.8873 8.84807 50.0213 8.92845 50.1499C8.9874 50.2464 9.04635 50.3428 9.1053 50.4393C9.18033 50.5626 9.26072 50.6858 9.3411 50.8091C9.40541 50.9109 9.47508 51.0181 9.53939 51.1199C9.61441 51.2378 9.68944 51.3557 9.76983 51.4682C9.84485 51.5808 9.91988 51.6933 9.99491 51.8059C10.0699 51.913 10.1396 52.0202 10.2146 52.1328C10.3004 52.256 10.3861 52.3793 10.4719 52.5025C10.5415 52.599 10.6058 52.6955 10.6755 52.7919C10.7773 52.9313 10.8792 53.076 10.9863 53.2153C11.0453 53.2957 11.0989 53.3707 11.1578 53.4511C11.324 53.6708 11.4901 53.8905 11.6562 54.1049C15.7666 59.3943 21.4365 64.2281 28.5051 68.4725L29.1161 68.8369L29.727 68.4725C36.7956 64.2281 42.4655 59.3943 46.5759 54.1049C46.5812 54.0995 46.5866 54.0888 46.592 54.0835C46.8492 53.7566 47.0957 53.4243 47.3369 53.092C47.369 53.0492 47.4012 53.0063 47.428 52.9688C47.6745 52.6312 47.9156 52.2882 48.1461 51.9452C48.1675 51.9184 48.1836 51.8862 48.205 51.8595C48.6981 51.1306 49.1697 50.3911 49.6091 49.6462C50.756 47.6955 51.7099 45.6966 52.4601 43.6655C52.6048 43.2689 52.7442 42.8777 52.8781 42.4811C52.3476 42.5669 51.9242 42.7009 51.5545 42.8509C51.5545 42.8509 51.5116 42.867 51.4848 42.8777C51.4687 42.8831 51.458 42.8884 51.4419 42.8938C51.2436 42.9795 51.0561 43.0653 50.8792 43.151C50.1611 43.494 49.5448 43.7941 48.2211 43.7941C46.8974 43.7941 46.2811 43.4994 45.563 43.151C44.8181 42.792 43.9767 42.39 42.3797 42.39C40.7827 42.39 39.936 42.792 39.1911 43.151C38.473 43.494 37.8567 43.7941 36.533 43.7941C35.2093 43.7941 34.593 43.4994 33.8749 43.151C33.6016 43.0224 33.3176 42.8831 32.9853 42.7598L31.9564 38.001L33.0871 38.2314L32.4012 35.225L36.1043 31.5487L38.548 33.344L42.3744 29.4801L46.2007 33.344L48.6391 31.5541L53.0175 35.9913L54.1161 37.106C54.1697 36.7202 54.2126 36.329 54.2501 35.9378C54.2501 35.8842 54.2554 35.8306 54.2608 35.777C54.2661 35.6966 54.2769 35.6162 54.2822 35.5358C54.5234 32.6419 54.3894 29.6623 53.8696 26.6613L53.8481 26.6559ZM46.6563 27.2186L46.7259 26.9989H48.1247L48.5587 25.6698H48.7892L49.2233 26.9989H50.622L50.6916 27.2186L49.5609 28.0385L49.995 29.3676L49.8074 29.5069L48.6766 28.687L47.5459 29.5069L47.3583 29.3676L47.7924 28.0385L46.6616 27.2186H46.6563ZM43.6713 27.0578L43.4837 27.1972L42.3529 26.3772L41.2222 27.1972L41.0346 27.0578L41.4687 25.7288L40.3379 24.9089L40.4076 24.6891H41.8063L42.2404 23.3601H42.4708L42.9049 24.6891H44.3036L44.3733 24.9089L43.2425 25.7288L43.6766 27.0578H43.6713ZM37.3476 29.3676L37.16 29.5069L36.0292 28.687L34.8985 29.5069L34.7109 29.3676L35.145 28.0385L34.0142 27.2186L34.0839 26.9989H35.4826L35.9167 25.6698H36.1471L36.5812 26.9989H37.9799L38.0496 27.2186L36.9188 28.0385L37.3529 29.3676H37.3476ZM32.2136 45.0642L30.831 44.7855L32.7281 53.8637L29.0893 52.4007L25.4505 53.8691L27.3529 44.7909L25.9703 45.0749L27.7763 36.4415L26.7313 36.6559L28.9767 24.6409H29.2018L31.4472 36.6559L30.4022 36.4415L32.2082 45.0803L32.2136 45.0642ZM29.8342 55.0642L30.1128 63.644H28.071L28.3711 55.0588L28.4194 53.6601L29.0946 53.3278L29.7913 53.6708L29.8342 55.0642ZM27.3315 57.5293L27.2886 58.0813C26.3615 58.1134 25.9113 58.3278 25.3111 58.6172C24.4697 59.0245 23.5105 59.48 21.6723 59.48C19.936 59.48 18.9874 59.0727 18.1782 58.6815C18.13 58.6601 18.0817 58.6386 18.0389 58.6118C17.9102 58.5475 17.787 58.4939 17.6691 58.4404C17.653 58.4296 17.6316 58.4243 17.6155 58.4189C17.4547 58.3493 17.2993 58.2903 17.1278 58.2367L17.6369 57.808H17.6477L17.6691 57.7812L17.8084 57.6633C18.0764 57.7651 18.3175 57.8777 18.5641 57.9956C18.6712 58.0438 18.7731 58.0974 18.8802 58.1456C19.5555 58.4564 20.3272 58.7405 21.667 58.7405C23.2264 58.7405 24.0142 58.3653 24.7752 57.9956C25.4505 57.674 26.0935 57.3632 27.3368 57.3418L27.3208 57.524L27.3315 57.5293ZM39.3036 58.151C39.4108 58.1027 39.518 58.0491 39.6198 58.0009C39.8663 57.883 40.1075 57.7705 40.3754 57.6687L41.056 58.2421C40.8685 58.2957 40.6916 58.3653 40.5148 58.4457C40.4987 58.4511 40.4773 58.4618 40.4612 58.4671C40.3594 58.5154 40.2575 58.5636 40.145 58.6172C40.0968 58.6386 40.0485 58.6601 40.0057 58.6869C39.1965 59.0727 38.2479 59.4854 36.5116 59.4854C34.6734 59.4854 33.7195 59.0245 32.8728 58.6226C32.2672 58.3332 31.817 58.1188 30.8845 58.0867L30.8417 57.5347L30.8256 57.3525C32.0796 57.3793 32.7227 57.6847 33.4033 58.0063C34.1643 58.3707 34.9521 58.7512 36.5116 58.7512C37.8567 58.7512 38.623 58.4725 39.2983 58.1563L39.3036 58.151ZM24.861 44.2443C24.861 44.2443 24.8877 44.2335 24.8985 44.2228L24.3786 46.6344L25.8095 46.345L23.7463 55.9698L27.5834 54.0674L27.4869 55.3589L27.4012 56.4789C25.9167 56.495 25.145 56.8648 24.4001 57.2185C23.6927 57.5561 23.0282 57.8777 21.667 57.8777C20.4183 57.8777 19.7538 57.6097 19.1107 57.3042C19.0517 57.2774 18.9928 57.2506 18.9338 57.2185C18.6605 57.0899 18.3818 56.9559 18.0657 56.838V44.9195L18.0281 44.9463L17.2082 45.5626V57.0363L16.4419 57.6794V53.8745V53.2635V45.1392L17.9638 43.9977C17.9853 44.0085 18.0121 44.0192 18.0335 44.0299C18.1353 44.0728 18.2372 44.121 18.339 44.1692C18.3872 44.1907 18.4354 44.2175 18.4837 44.2389C18.7141 44.3514 18.9606 44.4693 19.2339 44.5765C19.2393 44.5765 19.25 44.5819 19.2554 44.5872C19.8502 44.8177 20.5844 45.0052 21.667 45.0052C23.2693 45.0052 24.1107 44.6033 24.8556 44.2443H24.861ZM33.3283 44.2443C34.0732 44.6033 34.9146 45.0052 36.5169 45.0052C37.5994 45.0052 38.339 44.8177 38.9285 44.5872C38.9339 44.5872 38.9446 44.5819 38.9553 44.5765C39.2286 44.4693 39.4698 44.3514 39.7056 44.2389C39.7216 44.2335 39.7324 44.2228 39.7484 44.2175C39.8878 44.1532 40.0217 44.0889 40.1557 44.0299C40.1772 44.0192 40.204 44.0085 40.2254 43.9977L41.7474 45.1392V57.6794L40.981 57.0416V45.5679L40.1236 44.9249V56.8434C39.8074 56.9613 39.5287 57.0899 39.2554 57.2239C39.1965 57.2506 39.1375 57.2828 39.0786 57.3096C38.4355 57.6151 37.7709 57.883 36.5223 57.883C35.1611 57.883 34.4912 57.5615 33.7892 57.2239C33.0442 56.8648 32.2725 56.495 30.7774 56.4843L30.6916 55.3589L30.5898 54.062L34.4483 55.9752L34.1804 54.7373L32.3851 46.3504L33.816 46.6398L33.2961 44.2282C33.2961 44.2282 33.3229 44.2389 33.339 44.2496L33.3283 44.2443Z" fill="black"/>
<path d="M38.9175 47.8777C39.0515 47.8241 39.1801 47.7652 39.3034 47.7116V46.7631C39.3034 46.7631 39.2605 46.7845 39.2391 46.7952C39.1319 46.8488 39.0247 46.897 38.9175 46.9453C38.312 47.2239 37.6582 47.4544 36.5059 47.4544C35.2466 47.4544 34.582 47.1811 33.9282 46.8702V47.8134C34.5552 48.0867 35.3002 48.3118 36.5059 48.3118C37.6099 48.3118 38.328 48.1243 38.9175 47.8831V47.8777Z" fill="black"/>
<path d="M38.9174 50.4286C38.3118 50.7072 37.658 50.9377 36.5058 50.9377C35.6216 50.9377 35.0321 50.8037 34.5283 50.6161V51.5218C35.0374 51.6826 35.6591 51.7951 36.5058 51.7951C37.6098 51.7951 38.3279 51.6076 38.9174 51.3664C39.0514 51.3128 39.18 51.2539 39.3033 51.2003V50.2517C39.3033 50.2517 39.2604 50.2731 39.239 50.2839C39.1318 50.3375 39.0246 50.3857 38.9174 50.4339V50.4286Z" fill="black"/>
<path d="M38.9178 53.9013C38.3122 54.18 37.6584 54.4104 36.5062 54.4104C36.056 54.4104 35.6809 54.3729 35.354 54.314V55.1821C35.6863 55.2357 36.0668 55.2625 36.5062 55.2625C37.6102 55.2625 38.3283 55.075 38.9178 54.8338C39.0518 54.7802 39.1804 54.7213 39.3036 54.6677V53.7191C39.3036 53.7191 39.2608 53.7406 39.2393 53.7513C39.1321 53.8049 39.025 53.8531 38.9178 53.9013Z" fill="black"/>
<path d="M8.28516 22.2722L8.76747 22.6045L13.7836 15.7502V14.8767H12.9529L8.28516 22.2722Z" fill="black"/>
<path d="M36.7096 39.5874V36.6399H35.4663V37.3526H35.879V39.5874H36.7096Z" fill="black"/>
<path d="M39.0728 38.7941C39.0728 39.3836 39.6569 39.7051 40.2089 39.7051C40.7609 39.7051 41.345 39.389 41.345 38.7941C41.345 38.4511 41.1628 38.1778 40.8359 38.0385C41.0717 37.9206 41.2271 37.6687 41.2271 37.3847C41.2271 36.7952 40.6966 36.5272 40.2089 36.5272C39.7212 36.5272 39.1907 36.7952 39.1907 37.3847C39.1907 37.6687 39.3407 37.9152 39.5819 38.0385C39.2603 38.1778 39.0728 38.4511 39.0728 38.7941ZM40.2089 37.6901C40.0588 37.6901 39.9356 37.5669 39.9356 37.4115C39.9356 37.256 40.0588 37.1328 40.2089 37.1328C40.3589 37.1328 40.4822 37.256 40.4822 37.4115C40.4822 37.5669 40.3589 37.6901 40.2089 37.6901ZM40.2089 39.0085C40.0427 39.0085 39.9088 38.8691 39.9088 38.703C39.9088 38.5369 40.0427 38.3868 40.2089 38.3868C40.375 38.3868 40.509 38.5261 40.509 38.703C40.509 38.8798 40.375 39.0085 40.2089 39.0085Z" fill="black"/>
<path d="M44.5122 36.6399L43.8852 37.4598C43.6708 37.7385 43.4189 38.1672 43.4189 38.6227C43.4189 38.9229 43.5744 39.239 43.8209 39.4427C44.0245 39.6035 44.3353 39.6999 44.6623 39.6999C45.2732 39.6999 45.9377 39.3462 45.9377 38.5745C45.9377 38.0654 45.6001 37.5241 44.9784 37.5241C44.882 37.5241 44.7909 37.5349 44.6944 37.567L45.4768 36.6399H44.5229H44.5122ZM44.6569 38.1779C44.8927 38.1779 45.0749 38.3655 45.0749 38.6013C45.0749 38.8371 44.8927 39.0354 44.6569 39.0354C44.4211 39.0354 44.2282 38.8425 44.2282 38.6013C44.2282 38.3601 44.4211 38.1779 44.6569 38.1779Z" fill="black"/>
<path d="M47.8511 38.7941C47.8511 39.3836 48.4352 39.7051 48.9872 39.7051C49.5392 39.7051 50.1233 39.389 50.1233 38.7941C50.1233 38.4511 49.9411 38.1778 49.6142 38.0385C49.85 37.9206 50.0054 37.6687 50.0054 37.3847C50.0054 36.7952 49.4749 36.5272 48.9872 36.5272C48.4995 36.5272 47.969 36.7952 47.969 37.3847C47.969 37.6687 48.119 37.9152 48.3602 38.0385C48.0386 38.1778 47.8511 38.4511 47.8511 38.7941ZM48.9872 37.6901C48.8371 37.6901 48.7139 37.5669 48.7139 37.4115C48.7139 37.256 48.8371 37.1328 48.9872 37.1328C49.1373 37.1328 49.2605 37.256 49.2605 37.4115C49.2605 37.5669 49.1373 37.6901 48.9872 37.6901ZM48.9872 39.0085C48.8211 39.0085 48.6871 38.8691 48.6871 38.703C48.6871 38.5369 48.8211 38.3868 48.9872 38.3868C49.1533 38.3868 49.2873 38.5261 49.2873 38.703C49.2873 38.8798 49.1533 39.0085 48.9872 39.0085Z" fill="black"/>
<path d="M64.1855 27.8939C64.1855 21.1415 67.8458 16.9775 74.3088 16.9775C80.7719 16.9775 84.4 21.1415 84.4 27.8939C84.4 34.6463 80.7397 38.8103 74.3088 38.8103C67.878 38.8103 64.1855 34.6463 64.1855 27.8939ZM79.0141 27.8939C79.0141 21.2487 77.5404 18.7032 74.3088 18.7032C71.0773 18.7032 69.5714 21.2541 69.5714 27.8939C69.5714 34.5338 71.0452 37.0847 74.3088 37.0847C77.5725 37.0847 79.0141 34.5016 79.0141 27.8939Z" fill="#D73F09"/>
<path d="M94.5232 37.3365L94.057 38.4512H85.2948V37.4437L86.7686 36.7953V26.9935L85.2627 24.6248V24.2283L90.6861 22.433H91.4417L91.3345 26.0932H91.4792C92.1974 24.2604 93.5961 22.433 95.9702 22.433C97.8726 22.433 99.0195 23.5477 99.0195 25.3054C99.0195 26.9239 97.9048 27.926 96.5436 27.926C95.0002 27.926 94.0677 26.8864 94.0677 25.4126C93.1727 25.8092 92.3099 26.6345 91.4846 27.7117V36.6506L94.5393 37.3312L94.5232 37.3365Z" fill="#D73F09"/>
<path d="M107.809 35.7931C109.427 35.7931 110.36 35.3966 111.689 34.3944L112.369 35.1822C111.222 37.7653 109.03 38.8103 105.976 38.8103C101.881 38.8103 98.6499 36.1897 98.6499 30.8414C98.6499 25.493 102.31 22.4384 106.656 22.4384C110.177 22.4384 112.616 24.4855 112.616 28.2529C112.616 28.8264 112.578 29.6195 112.433 30.3001H103.243C103.312 33.5691 104.749 35.7931 107.803 35.7931H107.809ZM103.323 28.612H108.387C108.457 28.3226 108.495 27.8564 108.495 27.283C108.495 25.5948 108.028 24.0889 106.34 24.0889C104.759 24.0889 103.612 25.5627 103.323 28.612Z" fill="#D73F09"/>
<path d="M124.111 35.3269C127.524 35.3269 129.679 36.9775 129.679 40.4234C129.679 44.8017 125.333 46.4202 120.595 46.4202C116.217 46.4202 112.985 45.4127 112.985 42.6474C112.985 40.6002 114.604 39.6678 117.042 39.3087V39.2015C114.995 38.9496 113.848 37.7653 113.848 35.9003C113.848 34.0354 115.247 32.9207 117.224 32.5241C115.177 31.806 113.886 30.3698 113.886 28.0333C113.886 24.8714 116.254 22.4331 120.777 22.4331C122.642 22.4331 124.834 22.7921 126.522 23.6174C126.378 23.403 126.308 23.1137 126.308 22.7546C126.308 21.6078 127.171 20.8896 128.285 20.8896C129.4 20.8896 130.258 21.6774 130.258 22.9368C130.258 24.3034 129.357 25.0536 128.066 25.0536C127.133 25.0536 126.27 24.6946 125.231 24.298V24.6571C126.49 25.2305 127.348 26.4523 127.348 28.0708C127.348 31.5166 123.902 33.06 120.74 33.06C119.952 33.06 119.234 32.9904 118.548 32.8082C117.792 33.06 117.219 33.4566 117.219 34.2444C117.219 34.9625 117.648 35.3216 118.511 35.3216H124.111V35.3269ZM116.93 42.0418C116.93 43.9443 118.328 44.8446 120.81 44.8446C123.645 44.8446 125.799 44.0568 125.799 41.7899C125.799 40.4234 125.081 39.5981 122.964 39.5981H118.441C117.508 40.1018 116.935 40.8896 116.935 42.0418H116.93ZM120.627 24.0515C118.795 24.0515 118.473 25.4502 118.473 27.7867C118.473 30.1233 118.795 31.4845 120.627 31.4845C122.46 31.4845 122.819 30.0858 122.819 27.7867C122.819 25.4877 122.498 24.0515 120.627 24.0515Z" fill="#D73F09"/>
<path d="M136.892 38.8103C132.047 38.8103 128.848 36.045 128.848 30.6216C128.848 25.1983 132.042 22.433 136.892 22.433C141.742 22.433 144.936 25.1983 144.936 30.6216C144.936 36.045 141.742 38.8103 136.892 38.8103ZM136.892 37.1597C139.298 37.1597 139.946 34.791 139.946 30.627C139.946 26.463 139.298 24.0943 136.892 24.0943C134.485 24.0943 133.842 26.463 133.842 30.627C133.842 34.791 134.491 37.1597 136.892 37.1597Z" fill="#D73F09"/>
<path d="M163.789 37.4116L163.323 38.4512H155.461V37.4437L156.935 36.7631V28.9335C156.935 26.6023 155.713 25.8092 154.384 25.8092C153.162 25.8092 152.192 26.4201 151.549 27.0311V36.7256L153.666 37.4062L153.2 38.4459H145.37V37.4384L146.844 36.7899V26.9507L145.338 24.582V24.1854L150.761 22.4276H151.517L151.41 25.552H151.554C152.846 23.5048 154.641 22.4276 157.047 22.4276C159.668 22.4276 161.678 24.2604 161.678 27.9207V36.7203L163.795 37.4009L163.789 37.4116Z" fill="#D73F09"/>
<path d="M178.253 34.18C178.253 32.24 177.246 31.3075 174.877 30.3751L172.294 29.2979C169.636 28.2207 168.093 26.4254 168.093 23.1243C168.093 18.8531 171.394 16.9828 174.877 16.9828C176.78 16.9828 178.323 17.4115 179.438 17.7706L181.195 16.9828L181.517 22.9421L180.547 23.1564L178.821 20.8949C177.744 19.389 176.63 18.5959 174.765 18.5959C173.076 18.5959 171.93 19.673 171.93 21.3236C171.93 22.9742 172.685 23.9442 174.84 24.807L177.53 25.8842C180.906 27.2132 182.38 29.1532 182.38 32.4544C182.38 36.7631 179.111 38.8102 175.268 38.8102C172.685 38.8102 171.319 38.1618 170.311 37.6634L168.371 38.8102L167.76 31.9881L168.875 31.7738L170.633 34.3247C171.817 36.1575 173.146 37.1275 175.193 37.1275C177.096 37.1275 178.243 36.0503 178.243 34.1854L178.253 34.18Z" fill="#D73F09"/>
<path d="M182.67 23.4781L188.415 18.5585H189.492V22.7975H194.23L193.978 24.6624H189.525V33.1351C189.525 35.2198 190.312 36.0076 191.749 36.0076C192.681 36.0076 193.399 35.7932 194.407 35.2519L194.766 36.1147C193.651 37.8029 191.856 38.805 189.557 38.805C186.754 38.805 184.819 37.4063 184.819 33.7407V24.6571H182.665V23.4727L182.67 23.4781Z" fill="#D73F09"/>
<path d="M208.346 35.0054C208.346 36.6238 208.919 36.9829 210.607 36.8006L210.714 37.5188C209.819 38.3816 208.63 38.8103 206.941 38.8103C205.398 38.8103 204.107 38.1619 203.817 36.5113L203.71 36.4737C202.954 38.0922 201.304 38.8049 199.364 38.8049C196.958 38.8049 194.985 37.4759 194.985 34.4963C194.985 31.3344 197.499 29.791 201.486 29.791C202.242 29.791 203.067 29.9357 203.64 30.0804V28.7138C203.64 26.6291 202.311 25.5895 200.194 25.5895C198.688 25.5895 197.429 25.8789 195.923 26.6666L195.494 25.627C197.038 23.5423 199.514 22.433 202.461 22.433C205.409 22.433 208.351 23.762 208.351 28.1404V35L208.346 35.0054ZM202.852 31.4523C200.736 31.4523 199.514 31.9936 199.514 33.896C199.514 35.2251 200.302 36.12 201.561 36.12C202.349 36.12 202.997 35.9432 203.646 35.3644V31.4523H202.858H202.852Z" fill="#D73F09"/>
<path d="M208.989 23.4781L214.734 18.5585H215.811V22.7975H220.548L220.296 24.6624H215.843V33.1351C215.843 35.2198 216.631 36.0076 218.067 36.0076C218.999 36.0076 219.718 35.7932 220.725 35.2519L221.084 36.1147C219.969 37.8029 218.174 38.805 215.875 38.805C213.072 38.805 211.138 37.4063 211.138 33.7407V24.6571H208.983V23.4727L208.989 23.4781Z" fill="#D73F09"/>
<path d="M229.919 35.7931C231.538 35.7931 232.47 35.3966 233.799 34.3944L234.48 35.1822C233.333 37.7653 231.141 38.8103 228.087 38.8103C223.992 38.8103 220.761 36.1897 220.761 30.8414C220.761 25.493 224.421 22.4384 228.767 22.4384C232.288 22.4384 234.727 24.4855 234.727 28.2529C234.727 28.8264 234.689 29.6195 234.544 30.3001H225.353C225.423 33.5691 226.859 35.7931 229.914 35.7931H229.919ZM225.434 28.612H230.498C230.568 28.3226 230.605 27.8564 230.605 27.283C230.605 25.5948 230.139 24.0889 228.451 24.0889C226.87 24.0889 225.723 25.5627 225.434 28.612Z" fill="#D73F09"/>
<path d="M82.4606 59.7C82.4606 64.9411 78.9772 67.5992 74.4166 67.5992C69.572 67.5992 66.2279 65.6593 66.2279 60.0966V48.103L63.5698 47.2777L63.8217 46.1309H71.9354L72.2247 47.2777L69.5291 48.103V59.5928C69.5291 63.6871 71.2548 65.5896 74.7006 65.5896C78.1465 65.5896 80.3384 63.6871 80.3384 59.3409V48.103L77.6481 47.2777L77.9375 46.1309H84.8668L85.1562 47.2777L82.466 48.103V59.7H82.4606Z" fill="white"/>
<path d="M100.954 66.2004L100.488 67.2401H93.5963V66.2325L95.2844 65.6216V56.7524C95.2844 54.4533 93.8482 53.9871 92.6263 53.9871C91.1901 53.9871 89.7914 54.7052 88.9661 55.4233V65.5144L91.4795 66.195L91.0133 67.2347H84.1215V66.2272L85.8096 65.6538V55.2036L84.084 53.2636V52.867L88.3927 51.2164H88.9339L88.8268 54.2711H88.9715C90.4077 51.9024 92.5995 51.2164 94.2126 51.2164C96.2973 51.2164 98.4516 52.4758 98.4516 56.1361V65.5091L100.965 66.1897L100.954 66.2004Z" fill="white"/>
<path d="M108.709 66.2006L108.243 67.2402H101.351V66.2327L103.039 65.6593V55.2091L101.313 53.2692V52.8726L105.622 51.222H106.196V65.5146L108.709 66.1952V66.2006ZM104.577 44.2981C105.837 44.2981 106.801 45.2681 106.801 46.5221C106.801 47.7761 105.831 48.7461 104.577 48.7461C103.323 48.7461 102.353 47.7761 102.353 46.5221C102.353 45.2681 103.323 44.2981 104.577 44.2981Z" fill="white"/>
<path d="M119.588 53.419L117.219 52.6312L117.434 51.5916H123.248L123.463 52.6312L121.812 53.3118L116.357 67.2454H114.561L108.854 53.494L107.311 52.524L107.562 51.5916H114.17L114.422 52.6687L112.123 53.2421L114.636 59.5605C115.499 61.7148 115.928 63.9067 115.928 63.9067H116.073C116.073 63.9067 116.539 61.7523 117.402 59.5283L119.594 53.4244L119.588 53.419Z" fill="white"/>
<path d="M130.252 65.2679C132.01 65.2679 133.269 64.8017 134.705 63.7942L135.172 64.6195C133.88 66.597 132.047 67.5991 129.282 67.5991C125.439 67.5991 122.39 64.941 122.39 59.5552C122.39 54.1693 125.766 51.2272 129.786 51.2272C133.017 51.2272 135.354 53.2368 135.354 56.8649C135.354 57.4383 135.316 58.0493 135.177 58.7299H125.413C125.413 62.8563 127.245 65.2626 130.263 65.2626L130.252 65.2679ZM125.514 57.1865H132.085C132.122 56.9346 132.122 56.4683 132.122 56.2165C132.122 53.9549 131.227 52.7706 129.357 52.7706C127.631 52.7706 126.018 54.1371 125.514 57.1865Z" fill="white"/>
<path d="M144.003 66.1683L143.537 67.2455H135.927V66.238L137.615 65.6645V55.2144L135.89 53.2744V52.8778L140.198 51.2272H140.734L140.627 54.925H140.772C141.672 52.9153 143.285 51.1897 145.332 51.1897C147.02 51.1897 147.99 52.1222 147.99 53.5209C147.99 54.9196 147.02 55.7128 145.906 55.7128C144.614 55.7128 143.859 54.7803 143.859 53.5209C142.637 53.9871 141.667 55.0643 140.772 56.3934V65.5145L144.003 66.1629V66.1683Z" fill="white"/>
<path d="M148.923 62.1811C150.429 65.4126 151.833 66.2379 153.773 66.2379C155.386 66.2379 156.464 65.6645 156.464 63.9764C156.464 62.6098 155.676 61.8596 153.881 61.2486L151.833 60.5305C149.679 59.7749 148.28 58.4458 148.28 55.7931C148.28 52.7063 150.504 51.2325 153.521 51.2325C154.24 51.2325 155.676 51.4844 156.394 51.881L158.12 51.2701L158.409 55.8681L157.653 56.12C156.11 53.4619 154.851 52.7063 153.307 52.7063C151.764 52.7063 150.863 53.5691 150.863 54.8606C150.863 56.1522 151.512 56.9775 153.27 57.5884L155.317 58.269C157.685 59.0943 159.159 60.3537 159.159 63.0814C159.159 66.2754 156.753 67.6045 153.559 67.6045C152.085 67.6045 150.869 67.1758 150.006 66.7792L148.387 67.6045L148.066 62.433L148.929 62.1811H148.923Z" fill="white"/>
<path d="M167.481 66.2006L167.015 67.2402H160.123V66.2327L161.812 65.6593V55.2091L160.086 53.2692V52.8726L164.395 51.222H164.968V65.5146L167.481 66.1952V66.2006ZM163.355 44.2981C164.609 44.2981 165.579 45.2681 165.579 46.5221C165.579 47.7761 164.609 48.7461 163.355 48.7461C162.101 48.7461 161.131 47.7761 161.131 46.5221C161.131 45.2681 162.101 44.2981 163.355 44.2981Z" fill="white"/>
<path d="M166.694 52.2722L171.185 47.3151H171.903V51.5862H177.144L176.892 53.2744H171.903V62.6099C171.903 64.6195 172.766 65.4448 174.272 65.4448C175.279 65.4448 176.104 65.2304 177.182 64.6892L177.541 65.5895C176.356 66.881 174.99 67.5991 172.658 67.5991C170.327 67.5991 168.746 66.3451 168.746 63.1458V53.269H166.699V52.2615L166.694 52.2722Z" fill="white"/>
<path d="M177.177 53.4886L175.633 52.5187L175.885 51.5862H182.531L182.782 52.6634L180.483 53.2368L183.034 59.9892C184.042 62.6794 184.219 64.5498 184.219 64.5498H184.363C184.363 64.5498 184.974 62.2507 185.73 59.9517L187.847 53.419L185.478 52.6312L185.692 51.5915H191.437L191.652 52.6312L190.001 53.3118L185.012 66.9185C182.75 73.06 180.848 74.9999 177.9 74.9999C176.035 74.9999 175.028 73.9228 175.028 72.5562C175.028 71.2647 175.816 70.4715 177.075 70.4715C178.19 70.4715 178.908 71.2593 178.908 72.3043C178.908 72.8402 178.731 73.2743 178.549 73.5262C179.985 73.5262 181.85 70.9056 182.857 67.7813L177.182 53.4886H177.177Z" fill="white"/>
</g>
<defs>
<clipPath id="clip0_28_160">
<rect width="234.733" height="75" fill="white"/>
</clipPath>
</defs>
</svg>
